# xmcd
#
# Track frame offsets: 
#        150
#        13387
#        28848
#        43440
#        55680
#        70255
#        81604
#        100167
#        113440
#        137230
#        146748
#        159205
#        177204
#        192798
#        206667
#
# Disc length: 2905 seconds
#
# Revision: 0
# Processed by: cddbd v1.5.2PL0 Copyright (c) Steve Scherf et al.
# Submitted via: ExactAudioCopyFreeDBPlugin 1.0
#
DISCID=d90b570f
DTITLE=Lone Prairie - Cowboy Ways
DYEAR=1900
DGENRE=Country
TTITLE0=Cowboy Ways
TTITLE1=Mariah
TTITLE2=A Restless Wind
TTITLE3=Bluebonnet Lane
TTITLE4=The Prairie's Serenade
TTITLE5=Cannonball Yodel
TTITLE6=In The Arms of My Love
TTITLE7=Cherokee Maiden
TTITLE8=An Old Man's Cannon
TTITLE9=Little Red Wagon
TTITLE10=Navajo Trail
TTITLE11=Someday Soon
TTITLE12=Spirit Ride
TTITLE13=Whiskey Before Breakfast
TTITLE14=Rockin' to Roll
EXTD=
EXTT0=
EXTT1=
EXTT2=
EXTT3=
EXTT4=
EXTT5=
EXTT6=
EXTT7=
EXTT8=
EXTT9=
EXTT10=
EXTT11=
EXTT12=
EXTT13=
EXTT14=
PLAYORDER=
